<svg width="60" height="60" viewBox="0 0 60 60" fill="none" xmlns="http://www.w3.org/2000/svg">
<g clip-path="url(#clip0_214_536)">
<path d="M30 59.9708C46.4118 59.9708 60 46.3597 60 29.9854C60 13.5816 46.3823 0 29.9705 0C13.5882 0 0 13.5816 0 29.9854C0 46.3597 13.6176 59.9708 30 59.9708ZM30 54.9731C16.1176 54.9731 5.0294 43.8609 5.0294 29.9854C5.0294 16.1098 16.0882 4.99757 29.9705 4.99757C43.8527 4.99757 54.9999 16.1098 54.9999 29.9854C54.9999 43.8609 43.8823 54.9731 30 54.9731ZM16.9117 41.7444C21.4706 41.7444 25.1765 38.0402 25.1765 33.4835C25.1765 28.9271 21.4706 25.223 16.9117 25.223C12.3529 25.223 8.64704 28.9271 8.64704 33.4835C8.64704 38.0402 12.3529 41.7444 16.9117 41.7444ZM16.9412 39.3337C13.6765 39.3337 11.0588 36.7175 11.0588 33.4248C11.0588 30.1912 13.6765 27.6042 16.9412 27.6042C20.1764 27.6042 22.7941 30.1912 22.7941 33.4248C22.7941 36.7175 20.1764 39.3337 16.9412 39.3337ZM16.9412 35.4531C18.0294 35.4531 18.8823 34.5714 18.8823 33.4543C18.8823 32.3667 18.0294 31.5142 16.9412 31.5142C15.7941 31.5142 14.9412 32.3667 14.9412 33.4543C14.9412 34.5714 15.7941 35.4531 16.9412 35.4531ZM43.0881 41.7444C47.6765 41.7444 51.3529 38.0402 51.3529 33.4835C51.3529 28.9271 47.6765 25.223 43.0881 25.223C38.5295 25.223 34.8235 28.9271 34.8235 33.4835C34.8235 38.0402 38.5295 41.7444 43.0881 41.7444ZM43.1471 39.3337C39.8528 39.3337 37.2353 36.7175 37.2353 33.4248C37.2353 30.1912 39.8528 27.6042 43.1471 27.6042C46.3823 27.6042 48.9998 30.1912 48.9998 33.4248C48.9998 36.7175 46.3823 39.3337 43.1471 39.3337ZM43.1471 35.4531C44.2352 35.4531 45.0882 34.5714 45.0882 33.4543C45.0882 32.3667 44.2352 31.5142 43.1471 31.5142C41.9999 31.5142 41.147 32.3667 41.147 33.4543C41.147 34.5714 41.9999 35.4531 43.1471 35.4531ZM19.8235 20.4018H25.3529C26 20.4018 26.5882 19.8726 26.5882 19.2553C26.5882 18.5792 26.0294 18.0206 25.3529 18.0206H19.8235C19.147 18.0206 18.6176 18.5792 18.6176 19.2553C18.6176 19.8726 19.147 20.4018 19.8235 20.4018ZM16.5588 32.1313L18.4706 33.513L24.8823 26.4283L27.9411 31.9549H24.3823V34.2186H28.2353C29.4411 34.2186 30.0294 33.9245 30.6763 33.2192L38.1175 24.5174L41.6469 33.2484L43.794 32.2785L37.2645 16.2274C36.9411 15.4924 36.5293 15.2278 35.6764 15.2278H32.0587C31.3822 15.2278 30.8236 15.757 30.8236 16.4331C30.8236 17.0505 31.353 17.6091 32.0587 17.6091H35.3234L37.1471 22.0774L25.9117 23.5179L23.7353 19.5787L21.3529 20.1666L23.5588 24.1353L16.5588 32.1313ZM27.147 25.7521L35.3234 24.3704L29.8823 30.6322L27.147 25.7521Z" fill="white"/>
</g>
<defs>
<clipPath id="clip0_214_536">
<rect width="60" height="60" fill="white"/>
</clipPath>
</defs>
</svg>
